HIERARCHY
ROOT Hips
{
     OFFSET 1.88212 96.90440 -13.34250
     CHANNELS 6 Xposition Yposition Zposition Zrotation Xrotation Yrotation
     JOINT Spine
     {
          OFFSET 0.00000 11.89050 0.00000
          CHANNELS 3 Zrotation Xrotation Yrotation
          JOINT Spine1
          {
               OFFSET -0.00000 25.65740 0.12766
               CHANNELS 3 Zrotation Xrotation Yrotation
               JOINT HEad
               {
                    OFFSET 0.00000 8.73416 0.01134
                    CHANNELS 3 Zrotation Xrotation Yrotation
                    End Site
                    {
                         OFFSET -0.29000 12.77420 2.51395
                    }
               }
               JOINT LeftShoulder1
               {
                    OFFSET 8.99000 -0.36225 -0.22000
                    CHANNELS 3 Zrotation Xrotation Yrotation
                    JOINT LeftArm
                    {
                         OFFSET 10.28270 -0.00338 0.32212
                         CHANNELS 3 Zrotation Xrotation Yrotation
                         JOINT LeftForeArm
                         {
                              OFFSET 32.76690 0.09914 -1.42434
                              CHANNELS 3 Zrotation Xrotation Yrotation
                              JOINT LeftHand
                              {
                                   OFFSET 27.56430 0.08536 1.02216
                                   CHANNELS 3 Zrotation Xrotation Yrotation
                                   End Site
                                   {
                                        OFFSET 16.74430 -0.60000 1.50291
                                   }
                              }
                         }
                    }
               }
               JOINT RightShoulder
               {
                    OFFSET -8.99000 -0.36225 -0.22000
                    CHANNELS 3 Zrotation Xrotation Yrotation
                    JOINT RightArm
                    {
                         OFFSET -10.28270 -0.00338 0.32212
                         CHANNELS 3 Zrotation Xrotation Yrotation
                         JOINT RightForeArm
                         {
                              OFFSET -32.89710 0.09914 -1.42434
                              CHANNELS 3 Zrotation Xrotation Yrotation
                              JOINT RightHand
                              {
                                   OFFSET -27.49210 0.08536 1.02216
                                   CHANNELS 3 Zrotation Xrotation Yrotation
                                   End Site
                                   {
                                        OFFSET -16.63120 -0.60000 1.50291
                                   }
                              }
                         }
                    }
               }
          }
     }
     JOINT LeftUpLeg
     {
          OFFSET 8.94580 -8.66707 0.10165
          CHANNELS 3 Zrotation Xrotation Yrotation
          JOINT LeftLeg
          {
               OFFSET 0.00000 -44.42270 1.37270
               CHANNELS 3 Zrotation Xrotation Yrotation
               JOINT LeftFoot
               {
                    OFFSET -0.25355 -42.09240 -1.46059
                    CHANNELS 3 Zrotation Xrotation Yrotation
                    JOINT LeftToes
                    {
                         OFFSET -0.04000 -4.41509 8.49910
                         CHANNELS 3 Zrotation Xrotation Yrotation
                         End Site
                         {
                              OFFSET 0.08000 -0.04745 9.77979
                         }
                    }
               }
          }
     }
     JOINT RightUpLeg
     {
          OFFSET -8.94580 -8.66707 0.10165
          CHANNELS 3 Zrotation Xrotation Yrotation
          JOINT RightLeg
          {
               OFFSET 0.00000 -44.42270 1.37270
               CHANNELS 3 Zrotation Xrotation Yrotation
               JOINT RightFoot
               {
                    OFFSET 0.25355 -42.09240 -1.46059
                    CHANNELS 3 Zrotation Xrotation Yrotation
                    JOINT RightToes
                    {
                         OFFSET 0.04000 -4.41509 8.49910
                         CHANNELS 3 Zrotation Xrotation Yrotation
                         End Site
                         {
                              OFFSET -0.08000 -0.13745 9.77979
                         }
                    }
               }
          }
     }
}
MOTION
Frames: 17
Frame Time: 0.01667
49.03786 91.40601 -19.74445 2.08324 0.65726 139.97241 -1.21835 11.61603 3.76240 0.00954 0.00003 -0.00086 -16.83118 13.09246 30.82616 2.17583 8.83351 5.02070 -161.36194 -56.16912 -138.07823 -58.72633 57.25951 -81.07050 4.80600 8.91091 1.52343 11.59557 10.54879 8.71898 76.35065 -16.50454 82.81140 24.42566 40.48776 94.27595 -4.47849 9.53213 0.59067 19.54161 -24.49513 26.63611 5.66374 32.38493 -28.09825 -8.24056 0.00067 0.00494 -0.74206 -13.11112 2.01646 -9.58294 -8.61135 -3.36626 -7.08143 43.36261 -4.51302 6.84650 -0.01172 0.01574 -2.30376 -20.42579 -5.04356 
49.36873 91.30659 -18.93167 2.35891 0.88147 139.89484 -0.95356 12.31542 3.92589 0.00719 -0.00050 -0.00135 -17.07636 12.78211 30.61014 2.18182 8.11513 4.78693 -162.36876 -57.63628 -138.41321 -59.67561 57.65427 -81.49277 4.78981 9.02213 1.64968 11.45200 9.76772 8.32054 75.78040 -16.81621 82.22337 24.65844 40.54356 94.90170 -4.42628 9.57784 0.49737 20.14960 -23.77359 25.65922 4.81421 31.34365 -26.91952 -9.39011 0.00175 0.00795 0.19100 -12.23898 2.71455 -10.11929 -8.53364 -3.17879 -7.82374 44.79649 -5.13487 7.59466 -0.00524 0.01179 -2.87310 0.97855 -9.21407 
49.79354 91.19841 -17.90022 2.63323 1.16153 139.79889 -0.65963 12.96484 4.08781 0.00528 -0.00067 -0.00148 -17.32496 12.57951 30.37834 2.11577 7.46526 4.55611 -163.50566 -59.27637 -138.95435 -60.60374 57.95637 -81.93073 4.87731 9.28481 1.79351 11.21898 9.06050 7.99492 75.16891 -17.12533 81.64449 24.85514 40.59554 95.50534 -4.46861 9.54862 0.40637 20.71448 -22.97581 23.48812 3.47076 30.09759 -24.30975 -10.67018 0.00300 0.01106 1.17714 -11.03051 3.44893 -10.86022 -8.45706 -2.94544 -8.42373 46.26612 -5.53187 8.46952 -0.00081 0.01083 -1.67400 -9.95328 -5.54556 
50.28275 91.07417 -16.67919 2.88909 1.47351 139.68448 -0.35842 13.54486 4.25328 0.00362 -0.00043 -0.00122 -17.55372 12.47309 30.13047 1.95939 6.89966 4.35014 -164.72014 -61.02010 -139.67052 -61.44097 58.20111 -82.40665 4.85297 9.44139 1.87485 10.90733 8.45004 7.76760 74.54043 -17.43500 81.09499 25.00418 40.66507 96.09635 -4.45102 9.51287 0.38632 21.21301 -22.20741 20.24189 1.85280 28.71388 -20.43846 -12.02499 0.00433 0.01350 2.15286 -9.52933 4.17434 -11.79505 -8.35560 -2.66532 -8.88986 47.71259 -5.75304 9.39658 0.00291 0.00951 -1.33837 -4.29778 -6.07614 
50.81653 90.92343 -15.28442 3.10878 1.79682 139.55644 -0.07927 14.04620 4.42917 0.00199 0.00024 -0.00061 -17.73715 12.44624 29.86100 1.69848 6.43381 4.18446 -165.92271 -62.80190 -140.48135 -62.12687 58.41763 -82.93559 4.91635 9.60749 1.96894 10.52505 7.95604 7.65242 73.91835 -17.73955 80.59988 25.09802 40.76629 96.66978 -4.47919 9.40926 0.34692 21.60851 -21.67045 16.02057 0.09706 27.75434 -15.26593 -11.19899 0.00459 0.00273 0.95137 -8.12224 4.60138 -12.89733 -8.22943 -2.33845 -9.18097 49.08362 -5.85566 10.47162 0.00462 0.01017 -0.71810 -6.89707 -5.31524 
51.38177 90.71173 -13.73691 3.28054 2.11620 139.41885 0.14617 14.47033 4.62778 0.00036 0.00127 0.00021 -17.85004 12.48075 29.56248 1.32955 6.07757 4.06651 -166.98862 -64.57048 -141.25177 -62.61703 58.63494 -83.52885 4.94846 9.62650 2.00886 10.09312 7.59013 7.64387 73.31183 -18.01305 80.17717 25.12654 40.90847 97.21067 -4.48618 9.28036 0.32755 21.96100 -21.30682 12.08780 -1.22850 26.83900 -10.36762 -10.35649 -0.00305 -0.00631 -0.46368 -6.67073 4.83166 -14.13553 -8.06658 -1.96306 -9.26635 50.26638 -5.87617 11.58635 0.00533 0.00975 -0.35785 -6.08308 -5.77909 
51.96297 90.37889 -12.07600 3.38534 2.43908 139.28461 0.27128 14.82851 4.85318 -0.00112 0.00251 0.00106 -17.87157 12.55974 29.22867 0.86690 5.83439 3.99411 -167.78259 -66.29277 -141.81380 -62.89125 58.87391 -84.19104 5.06444 9.58730 2.01574 9.64869 7.35461 7.71506 72.71288 -18.21171 79.83231 25.08081 41.08845 97.69747 -4.56846 9.10713 0.28162 22.19161 -21.17197 8.44600 -2.36582 26.70441 -5.52648 -11.07205 0.01734 0.00822 -0.35886 -5.84975 4.58503 -15.22213 -7.94631 -1.49973 -7.37764 50.87910 -7.40055 11.77607 0.00467 0.00528 -0.71173 -8.00628 -6.48389 
52.55435 89.84882 -10.36444 3.41600 2.77891 139.16191 0.26216 15.13710 5.11025 -0.00220 0.00387 0.00176 -17.78796 12.66908 28.85739 0.34525 5.70276 3.95280 -168.19708 -67.95375 -142.00517 -62.95243 59.15401 -84.92404 5.18265 9.43120 1.93802 9.25142 7.24511 7.82255 72.09280 -18.28298 79.55276 24.94981 41.29695 98.11447 -4.71113 8.93609 0.24990 22.19626 -21.46029 5.08924 -2.83812 30.09853 2.23980 -5.76503 -0.16752 0.17618 -7.37574 -7.14711 -0.02010 -16.04967 -7.89353 -0.93891 -4.07674 50.99964 -10.13128 11.23471 0.00083 0.00323 -3.68268 -24.02321 -17.66665 
53.15967 89.09175 -8.65222 3.39705 3.13346 139.04396 0.12850 15.41373 5.41033 -0.00255 0.00509 0.00205 -17.59401 12.79677 28.45191 -0.16812 5.67178 3.91992 -168.18109 -69.55675 -141.69911 -62.81987 59.47893 -85.73567 5.34938 9.25907 1.77536 8.97915 7.24572 7.91430 71.40896 -18.17786 79.30965 24.72803 41.51131 98.46275 -4.99115 8.78424 0.23528 21.95847 -22.32516 2.03796 -4.39978 36.27647 12.10850 -11.25637 0.36388 -0.15408 -4.20266 -10.73987 -6.71021 -16.66446 -7.88451 -0.29241 -0.28029 50.82037 -13.30357 10.45252 -0.00098 0.00230 -4.90405 -20.05510 -13.86694 
53.74497 88.10083 -6.95156 3.34341 3.44177 138.94838 -0.06628 15.62617 5.72938 -0.00205 0.00605 0.00186 -17.29484 12.92620 28.01887 -0.59220 5.72205 3.86017 -167.75380 -71.11333 -140.83774 -62.51266 59.83955 -86.64021 5.49567 9.06470 1.52342 8.90108 7.32964 7.94383 70.62774 -17.86687 79.07274 24.41884 41.70305 98.75534 -5.36869 8.69403 0.25942 21.37610 -24.65564 -0.27004 -6.55899 42.00724 19.74930 -9.72829 -0.06341 -0.02451 -7.73971 -11.80348 -11.20341 -17.15835 -7.97556 0.37168 3.39877 50.60734 -16.33550 9.77090 -0.00228 0.00015 -7.69520 -39.72439 -15.48332 
54.26139 86.88696 -5.25752 3.27417 3.68570 138.89323 -0.26967 15.78479 6.03095 -0.00087 0.00686 0.00124 -16.90513 13.03281 27.56669 -0.86289 5.82951 3.72684 -166.98572 -72.63375 -139.43602 -62.03524 60.21624 -87.65503 5.64156 8.91063 1.22476 9.05121 7.46328 7.87987 69.74136 -17.34990 78.82302 24.03694 41.84180 99.00605 -5.83012 8.67485 0.29607 20.46281 -27.97479 -1.74787 -8.74336 47.95910 25.52007 -11.24753 0.03316 -0.06290 -7.95481 -12.94806 -13.92801 -17.62922 -8.23251 0.98999 6.77840 50.62154 -18.99257 9.38767 -0.00354 -0.00089 -8.99667 -32.87226 -15.05614 
54.66332 85.46255 -3.59791 3.20311 3.84998 138.87900 -0.43030 15.90362 6.28674 0.00066 0.00758 0.00023 -16.44882 13.08897 27.10645 -0.95785 5.97220 3.47569 -165.95349 -74.12398 -137.54642 -61.37722 60.58811 -88.79598 5.75627 8.77412 0.91059 9.41330 7.61446 7.70289 68.77049 -16.65251 78.55552 23.60637 41.90255 99.22485 -6.28710 8.73965 0.32533 19.50011 -31.87072 -2.23119 -9.19475 54.15404 28.91159 -13.15453 0.05096 -0.02071 -8.52467 -13.26198 -16.02135 -18.15152 -8.73601 1.51441 9.89400 51.06968 -21.26124 9.36275 -0.00609 -0.00062 -13.23420 -53.91338 -11.24921 
54.93295 83.83760 -2.04047 3.13507 3.94290 138.87898 -0.52060 16.00734 6.48721 0.00244 0.00834 -0.00118 -15.95959 13.07050 26.65529 -0.65975 6.13795 3.01359 -152.73256 -78.54336 -121.52473 -53.48064 60.15671 -98.76771 5.79179 8.66660 0.58396 9.94320 7.76060 7.39528 67.73266 -15.81636 78.25987 23.14537 41.87853 99.44128 -6.68924 8.87964 0.31120 18.73257 -36.05757 -1.53734 -8.43947 61.78267 29.57861 -15.28207 0.03129 -0.03783 -9.43609 -14.58426 -17.59984 -18.78469 -9.51499 1.92887 12.89150 52.06102 -23.24135 9.69810 -0.00815 0.00189 -14.29025 -45.93272 -14.07469 
55.08543 82.02424 -0.65813 3.09620 3.96565 138.86279 -0.50288 16.11698 6.62756 0.00363 0.00812 -0.00276 -15.46484 12.96881 26.23330 -0.35108 6.30785 2.40755 -136.76180 -80.85793 -103.51411 -48.79583 59.34875 -104.57993 5.76771 8.56124 0.24899 10.52195 7.88152 6.96683 66.70386 -14.90658 77.95663 22.70432 41.75272 99.64091 -6.96977 9.08919 0.25231 18.28404 -40.15689 0.44169 -4.48927 69.71010 25.53532 -17.23448 0.01480 -0.04310 -10.64028 -16.60953 -18.34040 -19.55983 -10.59009 2.22239 15.96949 53.68088 -25.08137 10.40013 -0.01078 0.00722 -17.27392 -52.77755 -13.68975 
55.16789 80.05415 0.50763 3.11141 3.92619 138.79330 -0.35598 16.24646 6.71435 0.00440 0.00789 -0.00457 -14.98904 12.78816 25.86243 -0.07282 6.47459 1.72717 -121.68857 -81.84754 -86.80898 -46.15922 58.68400 -107.76081 5.67975 8.47691 -0.09986 11.09269 7.97474 6.41860 65.69362 -13.97186 77.65690 22.30371 41.53070 99.84003 -7.11509 9.34892 0.16024 18.67342 -43.50922 2.89017 2.76787 76.45322 16.62265 -18.64738 -0.00238 -0.03106 -12.00498 -19.17130 -18.22294 -20.48586 -11.95217 2.39872 19.33563 55.96839 -26.96871 11.42528 -0.01153 0.01419 -19.64598 -52.91926 -15.25705 
55.22257 77.98289 1.45653 3.23827 3.83399 138.64095 -0.04618 16.42773 6.75352 0.00452 0.00731 -0.00628 -14.54762 12.54345 25.56263 0.16795 6.63558 1.03265 -109.94767 -82.18106 -73.64378 -44.76738 58.29819 -109.37491 5.61226 8.40698 -0.43113 11.58346 8.04149 5.78553 64.73618 -13.06649 77.38589 21.96234 41.22549 100.04489 -7.11559 9.63602 0.07304 19.82549 -46.04181 5.77093 17.91327 81.47905 -1.60118 -19.35736 -0.00938 -0.01059 -13.34140 -22.18098 -17.16352 -21.50752 -13.54160 2.47501 23.25484 58.88660 -29.16640 12.72934 -0.01104 0.02321 -22.69625 -56.92741 -16.22079 
55.26983 75.91199 2.22660 3.47809 3.69025 138.40228 0.41817 16.65295 6.73880 0.00411 0.00649 -0.00763 -14.14893 12.25150 25.34829 0.36977 6.78845 0.37903 -101.61684 -82.24876 -64.01447 -44.15547 58.18097 -110.05807 5.51864 8.36990 -0.75838 11.94857 8.09046 5.11942 63.85812 -12.23363 77.18226 21.68912 40.85862 100.25843 -7.00162 9.91404 0.01811 21.38818 -47.77674 8.82608 45.56485 82.80620 -32.04808 -19.95765 0.00275 -0.00539 -14.59920 -23.73402 -15.75357 -22.59236 -15.47229 2.44418 28.74123 62.62231 -32.63631 14.03343 -0.00824 0.03021 -25.80095 -59.87485 -18.07216 
